<svg width="122" height="94" viewBox="0 0 122 94" fill="none" xmlns="http://www.w3.org/2000/svg">
<path d="M65.8492 69.2381C65.836 72.5409 66.5214 75.8076 67.8584 78.8143C69.1954 81.8211 71.1524 84.4969 73.5954 86.6585C78.8377 91.5483 85.7271 94.1758 92.8216 93.9909C101.828 93.9909 108.939 90.7866 114.155 84.378C119.365 78.0056 122.149 69.9242 121.994 61.6206C121.994 41.7403 116.659 26.7799 105.99 16.7394C95.321 6.69894 83.5106 1.14026 70.5589 0.0633604V21.8705C77.0857 22.5811 83.2646 25.2353 88.3288 29.5038C90.935 31.497 93.0819 34.0501 94.6184 36.9834C96.1548 39.9166 97.0434 43.1585 97.2214 46.4807C95.0704 45.4097 92.7043 44.8674 90.3118 44.8971C82.5759 44.8971 76.5648 47.1406 72.2786 51.6277C70.1134 53.9773 68.4294 56.7454 67.3253 59.7696C66.2212 62.7937 65.7193 66.0129 65.8492 69.2381ZM0.00626373 69.2381C-0.0100327 72.5414 0.673973 75.8091 2.01119 78.8163C3.34841 81.8236 5.30711 84.499 7.7525 86.6585C12.9948 91.5483 19.8842 94.1758 26.9786 93.9909C35.9642 93.9909 43.0185 90.7866 48.1413 84.378C53.289 77.9754 56.0354 69.9067 55.8876 61.6206C55.8876 41.7403 50.6098 26.7799 40.0543 16.7394C29.4987 6.69894 17.7038 1.11913 4.6695 0V21.8071C11.182 22.5452 17.3392 25.2214 22.3774 29.5038C25.0031 31.4852 27.1695 34.0336 28.7225 36.9678C30.2755 39.902 31.1771 43.15 31.363 46.4807C29.2176 45.4093 26.8564 44.8669 24.4688 44.8971C16.7433 44.8971 10.7322 47.1406 6.43565 51.6277C4.27037 53.9765 2.58728 56.7449 1.48569 59.7695C0.384109 62.7941 -0.11367 66.0136 0.021759 69.2381H0.00626373Z" fill="#2E58F1" fill-opacity="0.1"/>
</svg>
