<svg width="30" height="24" viewBox="0 0 30 24" fill="none" xmlns="http://www.w3.org/2000/svg">
<path d="M26.6603 5.99188L26.6786 6.76673C26.6786 14.6792 20.6262 23.795 9.55702 23.795C6.15962 23.795 2.99739 22.8045 0.333252 21.1058C0.803807 21.1605 1.28341 21.1909 1.76924 21.1909C4.58926 21.1909 7.18314 20.2337 9.24235 18.6293C6.60876 18.5808 4.38755 16.8487 3.62071 14.4726C3.99036 14.5425 4.36312 14.5759 4.75418 14.5759C5.30413 14.5759 5.8357 14.5061 6.33982 14.3693C3.58704 13.8163 1.51256 11.4007 1.51256 8.50186V8.42589C2.32522 8.87559 3.25096 9.14297 4.2378 9.17646C2.62462 8.10384 1.5614 6.27156 1.5614 4.19618C1.5614 3.09927 1.85778 2.07223 2.37407 1.18803C5.34072 4.81001 9.77692 7.19224 14.7784 7.44143C14.6744 7.00383 14.6226 6.54503 14.6226 6.07714C14.6226 2.77422 17.3173 0.0941162 20.6414 0.0941162C22.3707 0.0941162 23.935 0.820292 25.0348 1.98407C26.4036 1.71359 27.6929 1.21532 28.8569 0.531621C28.4078 1.9294 27.4546 3.10227 26.2111 3.84364C27.4241 3.7008 28.5881 3.37565 29.6666 2.90166C28.86 4.09883 27.8365 5.15325 26.6603 5.99188Z" fill="white"/>
</svg>
